<!-- Generated by IcoMoon.io -->
<svg aria-hidden="true" style="position: absolute; width: 0; height: 0; overflow: hidden;" version="1.1" xmlns="http://www.w3.org/2000/svg" xmlns:xlink="http://www.w3.org/1999/xlink">
<defs>
<symbol id="icon-image-outline" viewBox="0 0 24 24">
<title>image-outline</title>
<path d="M8.5 7.999c0.827 0 1.5 0.673 1.5 1.5s-0.673 1.5-1.5 1.5-1.5-0.673-1.5-1.5 0.673-1.5 1.5-1.5M8.5 6.999c-1.381 0-2.5 1.119-2.5 2.5s1.119 2.5 2.5 2.5 2.5-1.119 2.5-2.5-1.119-2.5-2.5-2.5z"></path>
<path d="M16 11.999c0.45 0.051 1.27 1.804 1.779 4.001h-11.392c0.434-1.034 1.055-2.001 1.612-2.001 0.806 0 1.125 0.185 1.53 0.42 0.447 0.258 1.006 0.58 1.97 0.58 1.138 0 1.942-0.885 2.653-1.666 0.627-0.687 1.218-1.334 1.848-1.334M16 10.999c-2 0-3 3-4.5 3s-1.499-1-3.5-1c-2 0-3.001 4-3.001 4h14.001c0 0-1-6-3-6z"></path>
<path d="M22 6c0-1.104-0.896-2-2-2h-16c-1.104 0-2 0.896-2 2v12c0 1.104 0.896 2 2 2h16c1.104 0 2-0.896 2-2v-12zM20 18h-16v-12h16.003l-0.003 12z"></path>
</symbol>
<symbol id="icon-gift" viewBox="0 0 24 24">
<title>gift</title>
<path d="M19 8h-2.352c0.219-0.457 0.352-0.961 0.352-1.5 0-1.93-1.57-3.5-3.5-3.5-0.979 0-1.864 0.407-2.5 1.058-0.636-0.651-1.521-1.058-2.5-1.058-1.93 0-3.5 1.57-3.5 3.5 0 0.539 0.133 1.043 0.352 1.5h-2.352c-0.553 0-1 0.448-1 1v4c0 0.552 0.447 1 1 1v5c0 1.654 1.346 3 3 3h10c1.654 0 3-1.346 3-3v-5c0.553 0 1-0.448 1-1v-4c0-0.552-0.447-1-1-1zM18 12h-5v-2h5v2zM10 7h2v1h-2v-1zM12 10v2h-2v-2h2zM13.5 5c0.827 0 1.5 0.673 1.5 1.5s-0.673 1.5-1.5 1.5c-0.177 0-0.344-0.039-0.5-0.097v-0.903c0-0.521-0.404-0.937-0.913-0.982 0.202-0.59 0.756-1.018 1.413-1.018zM7 6.5c0-0.827 0.673-1.5 1.5-1.5 0.657 0 1.211 0.428 1.413 1.018-0.509 0.045-0.913 0.461-0.913 0.982v0.903c-0.156 0.058-0.323 0.097-0.5 0.097-0.827 0-1.5-0.673-1.5-1.5zM9 10v2h-5v-2h5zM6 20c-0.551 0-1-0.449-1-1v-6h4v7h-3zM10 20v-7h2v7h-2zM16 20h-3v-7h4v6c0 0.551-0.449 1-1 1z"></path>
</symbol>
<symbol id="icon-anchor-outline" viewBox="0 0 24 24">
<title>anchor-outline</title>
<path d="M13 6c0 0.552-0.448 1-1 1s-1-0.448-1-1c0-0.552 0.448-1 1-1s1 0.448 1 1z"></path>
<path d="M19.793 12.096c0.134-0.34 0.207-0.709 0.207-1.096 0-1.654-1.346-3-3-3h-0.422c0.273-0.619 0.422-1.297 0.422-2 0-2.757-2.243-5-5-5s-5 2.243-5 5c0 0.703 0.149 1.381 0.422 2h-0.422c-1.654 0-3 1.346-3 3 0 0.387 0.073 0.756 0.207 1.096-0.732 0.548-1.207 1.422-1.207 2.404 0 4.963 4.037 9 9 9s9-4.037 9-9c0-0.982-0.475-1.856-1.207-2.404zM12 21.5c-3.859 0-7-3.141-7-7 0-0.553 0.447-1 1-1s1 0.447 1 1c0 2.414 1.721 4.434 4 4.898v-7.398h-4c-0.553 0-1-0.447-1-1s0.447-1 1-1h4v-1.184c-1.162-0.413-2-1.511-2-2.816 0-1.657 1.343-3 3-3s3 1.343 3 3c0 1.305-0.838 2.403-2 2.816v1.184h4c0.553 0 1 0.447 1 1s-0.447 1-1 1h-4v7.398c2.279-0.465 4-2.484 4-4.898 0-0.553 0.447-1 1-1s1 0.447 1 1c0 3.859-3.141 7-7 7zM7.321 13h2.679v4.962c-1.207-0.701-2-2.009-2-3.462 0-0.597-0.263-1.133-0.679-1.5zM16.679 13c-0.416 0.367-0.679 0.903-0.679 1.5 0 1.453-0.793 2.761-2 3.462v-4.962h2.679z"></path>
<path d="M13 6c0 0.552-0.448 1-1 1s-1-0.448-1-1c0-0.552 0.448-1 1-1s1 0.448 1 1z"></path>
</symbol>
<symbol id="icon-puzzle-outline" viewBox="0 0 24 24">
<title>puzzle-outline</title>
<path d="M20 11.25v-1.75c0-1.93-1.57-3.5-3.5-3.5h-0.759c-0.141-1.982-1.953-3.5-4.241-3.5s-4.1 1.518-4.241 3.5h-0.759c-1.93 0-3.5 1.57-3.5 3.5v1.75c0 1.012 0.514 1.847 1.295 2.246-0.358 0.188-0.668 0.469-0.894 0.825-0.262 0.414-0.401 0.908-0.401 1.429v2.75c0 1.93 1.57 3.5 3.5 3.5h2.75c0.976 0 1.831-0.497 2.242-1.299 0.013 0.024 0.024 0.046 0.036 0.066 0.435 0.772 1.266 1.233 2.222 1.233h2.75c1.93 0 3.5-1.57 3.5-3.5v-2.75c0-1.013-0.515-1.849-1.297-2.247 0.776-0.411 1.297-1.256 1.297-2.253zM18 18.5c0 0.825-0.675 1.5-1.5 1.5h-2.75c-0.356 0-0.724-0.216-0.391-0.766 0.246-0.28 0.391-0.619 0.391-0.984 0-0.967-1.007-1.75-2.25-1.75s-2.25 0.783-2.25 1.75c0 0.3 0.095 0.576 0.255 0.823 0.507 0.673 0.136 0.927-0.255 0.927h-2.75c-0.825 0-1.5-0.675-1.5-1.5v-2.75c0-0.258 0.113-0.521 0.384-0.521 0.104 0 0.229 0.039 0.382 0.13 0.28 0.246 0.62 0.391 0.984 0.391 0.966 0 1.75-1.008 1.75-2.25s-0.784-2.25-1.75-2.25c-0.3 0-0.576 0.095-0.822 0.255-0.237 0.171-0.422 0.243-0.562 0.243-0.26 0-0.366-0.245-0.366-0.498v-1.75c0-0.825 0.675-1.5 1.5-1.5h2.75c0.391 0 0.762-0.254 0.243-0.927-0.148-0.247-0.243-0.523-0.243-0.823 0-0.967 1.007-1.75 2.25-1.75s2.25 0.783 2.25 1.75c0 0.365-0.145 0.704-0.391 0.984-0.333 0.55 0.035 0.766 0.391 0.766h2.75c0.825 0 1.5 0.675 1.5 1.5v1.75c0 0.258-0.113 0.521-0.384 0.521-0.104 0-0.229-0.039-0.382-0.13-0.28-0.246-0.62-0.391-0.984-0.391-0.966 0-1.75 1.008-1.75 2.25s0.784 2.25 1.75 2.25c0.3 0 0.576-0.095 0.822-0.255 0.237-0.171 0.422-0.244 0.562-0.243 0.259 0 0.365 0.245 0.365 0.498v2.75zM5 12.694c0.116 0.032 0.236 0.054 0.365 0.054 0.342 0 0.683-0.119 1.038-0.364 0.023-0.013 0.047-0.026 0.069-0.041 0.097-0.063 0.188-0.093 0.278-0.093 0.354 0 0.75 0.535 0.75 1.25s-0.396 1.25-0.75 1.25c-0.108 0-0.217-0.048-0.324-0.142-0.045-0.039-0.092-0.074-0.143-0.104-0.301-0.183-0.604-0.275-0.899-0.275-0.134 0-0.261 0.023-0.384 0.059v-1.594zM17.635 14.252c-0.342 0-0.683 0.119-1.038 0.364-0.023 0.013-0.047 0.026-0.069 0.041-0.097 0.063-0.188 0.093-0.277 0.093-0.354 0-0.75-0.535-0.75-1.25s0.396-1.25 0.75-1.25c0.108 0 0.217 0.048 0.324 0.142 0.045 0.039 0.092 0.074 0.143 0.104 0.302 0.183 0.604 0.275 0.899 0.275 0.136 0 0.262-0.025 0.384-0.062v1.597c-0.117-0.032-0.237-0.054-0.366-0.054zM10.692 20c0.101-0.346 0.093-0.816-0.305-1.396-0.014-0.025-0.028-0.050-0.044-0.074-0.062-0.098-0.094-0.189-0.094-0.279 0-0.354 0.534-0.75 1.25-0.75s1.25 0.396 1.25 0.75c0 0.108-0.048 0.217-0.143 0.325-0.038 0.044-0.073 0.091-0.104 0.142-0.325 0.537-0.311 0.979-0.22 1.284h-1.59z"></path>
</symbol>
<symbol id="icon-weather-snow" viewBox="0 0 24 24">
<title>weather-snow</title>
<path d="M20.5 15.134l-2.457-0.503 1.483-0.396c0.533-0.143 0.85-0.69 0.707-1.225-0.142-0.533-0.689-0.85-1.225-0.707l-1.508 0.403c0.037-0.231 0.071-0.464 0.071-0.706s-0.034-0.476-0.071-0.707l1.51 0.404c0.087 0.023 0.174 0.034 0.26 0.034 0.441 0 0.846-0.295 0.965-0.741 0.143-0.533-0.174-1.082-0.707-1.225l-1.483-0.397 2.455-0.502c0.216-0.044 0.42-0.156 0.577-0.333 0.386-0.436 0.347-1.102-0.089-1.488s-1.102-0.347-1.488 0.089l-1.663 1.874 0.398-1.479c0.144-0.533-0.173-1.082-0.706-1.226-0.531-0.142-1.082 0.173-1.226 0.706l-0.407 1.517c-0.366-0.299-0.771-0.544-1.219-0.717l1.102-1.102c0.391-0.391 0.391-1.023 0-1.414s-1.023-0.391-1.414 0l-1.086 1.086 0.793-2.379c0.069-0.209 0.075-0.441 0-0.667-0.184-0.552-0.781-0.851-1.333-0.666s-0.85 0.78-0.667 1.333l0.793 2.379-1.086-1.086c-0.391-0.391-1.023-0.391-1.414 0s-0.391 1.023 0 1.414l1.102 1.102c-0.447 0.173-0.853 0.419-1.219 0.717l-0.405-1.515c-0.143-0.534-0.697-0.852-1.224-0.708-0.534 0.143-0.851 0.69-0.708 1.224l0.396 1.485-1.662-1.877c-0.146-0.164-0.345-0.285-0.578-0.333-0.57-0.117-1.127 0.25-1.244 0.82s0.251 1.128 0.822 1.245l2.454 0.503-1.48 0.396c-0.533 0.143-0.85 0.691-0.707 1.225 0.119 0.447 0.523 0.741 0.965 0.741 0.086 0 0.173-0.011 0.26-0.034l1.508-0.404c-0.039 0.231-0.073 0.465-0.073 0.706s0.034 0.475 0.071 0.707l-1.508-0.404c-0.532-0.142-1.081 0.173-1.225 0.707-0.144 0.533 0.174 1.082 0.707 1.225l1.483 0.397-2.455 0.502c-0.216 0.044-0.42 0.156-0.577 0.334-0.387 0.436-0.347 1.102 0.089 1.487 0.436 0.387 1.103 0.347 1.488-0.089l1.665-1.878-0.398 1.484c-0.144 0.533 0.173 1.082 0.707 1.225 0.087 0.023 0.174 0.034 0.26 0.034 0.441 0 0.845-0.294 0.965-0.741l0.406-1.515c0.366 0.298 0.771 0.544 1.22 0.716l-1.104 1.102c-0.391 0.39-0.391 1.023 0 1.414s1.023 0.391 1.414 0l0.706-0.707h0.252l-0.666 1.999c-0.069 0.209-0.075 0.441 0 0.667 0.184 0.552 0.781 0.851 1.333 0.666 0.553-0.184 0.851-0.78 0.667-1.333l-0.666-1.999h0.252l0.707 0.707c0.196 0.195 0.451 0.293 0.707 0.293s0.512-0.098 0.707-0.293c0.391-0.39 0.391-1.023 0-1.414l-1.102-1.103c0.448-0.172 0.854-0.418 1.22-0.717l0.406 1.517c0.12 0.447 0.523 0.741 0.965 0.741 0.086 0 0.173-0.011 0.26-0.034 0.533-0.143 0.851-0.691 0.707-1.225l-0.397-1.48 1.662 1.874c0.146 0.165 0.345 0.285 0.577 0.333 0.57 0.117 1.128-0.251 1.244-0.821 0.117-0.57-0.251-1.127-0.821-1.244zM13.072 14.5c-1.379 0-2.5-1.121-2.5-2.5s1.121-2.5 2.5-2.5 2.5 1.121 2.5 2.5-1.121 2.5-2.5 2.5z"></path>
</symbol>
<symbol id="icon-wine" viewBox="0 0 24 24">
<title>wine</title>
<path d="M17.568 9.432c0-2.55-0.906-5.592-0.944-5.72-0.128-0.423-0.517-0.712-0.958-0.712h-7.332c-0.441 0-0.83 0.289-0.958 0.712-0.038 0.128-0.944 3.17-0.944 5.72 0 2.735 1.984 5.011 4.587 5.477-0.003 0.030-0.019 0.059-0.019 0.091v4h-1c-0.553 0-1 0.447-1 1s0.447 1 1 1h4c0.553 0 1-0.447 1-1s-0.447-1-1-1h-1v-4c0-0.032-0.016-0.061-0.019-0.092 2.603-0.466 4.587-2.741 4.587-5.476zM12 13c-1.773 0-3.236-1.303-3.511-3h7.021c-0.274 1.697-1.737 3-3.51 3zM8.445 9c0.062-1.468 0.422-3.093 0.653-4h5.803c0.231 0.907 0.591 2.532 0.653 4h-7.109z"></path>
</symbol>
<symbol id="icon-leaf" viewBox="0 0 32 32">
<title>leaf</title>
<path d="M31.604 4.203c-3.461-2.623-8.787-4.189-14.247-4.189-6.754 0-12.257 2.358-15.099 6.469-1.335 1.931-2.073 4.217-2.194 6.796-0.108 2.296 0.278 4.835 1.146 7.567 2.965-8.887 11.244-15.847 20.79-15.847 0 0-8.932 2.351-14.548 9.631-0.003 0.004-0.078 0.097-0.207 0.272-1.128 1.509-2.111 3.224-2.846 5.166-1.246 2.963-2.4 7.030-2.4 11.931h4c0 0-0.607-3.819 0.449-8.212 1.747 0.236 3.308 0.353 4.714 0.353 3.677 0 6.293-0.796 8.231-2.504 1.736-1.531 2.694-3.587 3.707-5.764 1.548-3.325 3.302-7.094 8.395-10.005 0.292-0.167 0.48-0.468 0.502-0.804s-0.126-0.659-0.394-0.862z"></path>
</symbol>
</defs>
</svg>
